<?xml version="1.0" encoding="UTF-8"?>
<svg width="15px" height="15px" viewBox="0 0 15 15" version="1.1" xmlns="http://www.w3.org/2000/svg" xmlns:xlink="http://www.w3.org/1999/xlink">
    <!-- Generator: Sketch 48.2 (47327) - http://www.bohemiancoding.com/sketch -->
    <title>help</title>
    <desc>Created with Sketch.</desc>
    <defs></defs>
    <g id="exportable-assets" stroke="none" stroke-width="1" fill="none" fill-rule="evenodd" transform="translate(-249.000000, -897.000000)">
        <g id="help" transform="translate(249.000000, 897.000000)">
            <rect id="BG" fill="#A03914" x="0" y="0" width="15" height="15" rx="7.5"></rect>
            <path d="M5.25,3.882 C5.38600068,3.7619994 5.53499919,3.64800054 5.697,3.54 C5.85900081,3.43199946 6.03399906,3.3380004 6.222,3.258 C6.41000094,3.1779996 6.6139989,3.11500023 6.834,3.069 C7.0540011,3.02299977 7.29199872,3 7.548,3 C7.89600174,3 8.21299857,3.04799952 8.499,3.144 C8.78500143,3.24000048 9.02999898,3.37699911 9.234,3.555 C9.43800102,3.73300089 9.59599944,3.94799874 9.708,4.2 C9.82000056,4.45200126 9.876,4.73399844 9.876,5.046 C9.876,5.35000152 9.83200044,5.61299889 9.744,5.835 C9.65599956,6.05700111 9.54500067,6.24999918 9.411,6.414 C9.27699933,6.57800082 9.13200078,6.7199994 8.976,6.84 C8.81999922,6.9600006 8.6720007,7.07299947 8.532,7.179 C8.3919993,7.28500053 8.27100051,7.38899949 8.169,7.491 C8.06699949,7.59300051 8.0060001,7.70799936 7.986,7.836 L7.848,8.712 L6.834,8.712 L6.732,7.734 C6.72799998,7.7139999 6.726,7.69700007 6.726,7.683 L6.726,7.632 C6.726,7.45599912 6.76999956,7.30300065 6.858,7.173 C6.94600044,7.04299935 7.05599934,6.92100057 7.188,6.807 C7.32000066,6.69299943 7.46199924,6.58200054 7.614,6.474 C7.76600076,6.36599946 7.90799934,6.24900063 8.04,6.123 C8.17200066,5.99699937 8.28199956,5.8540008 8.37,5.694 C8.45800044,5.5339992 8.502,5.34600108 8.502,5.13 C8.502,4.98599928 8.47500027,4.85700057 8.421,4.743 C8.36699973,4.62899943 8.29200048,4.53100041 8.196,4.449 C8.09999952,4.36699959 7.98500067,4.30400022 7.851,4.26 C7.71699933,4.21599978 7.57200078,4.194 7.416,4.194 C7.18799886,4.194 6.99500079,4.21899975 6.837,4.269 C6.67899921,4.31900025 6.54500055,4.37499969 6.435,4.437 C6.32499945,4.49900031 6.23200038,4.55499975 6.156,4.605 C6.07999962,4.65500025 6.0120003,4.68 5.952,4.68 C5.80799928,4.68 5.70400032,4.6200006 5.64,4.5 L5.25,3.882 Z M6.384,10.956 C6.384,10.8319994 6.40699977,10.7140006 6.453,10.602 C6.49900023,10.4899994 6.56299959,10.3940004 6.645,10.314 C6.72700041,10.2339996 6.82399944,10.1700002 6.936,10.122 C7.04800056,10.0739998 7.16799936,10.05 7.296,10.05 C7.42000062,10.05 7.53799944,10.0739998 7.65,10.122 C7.76200056,10.1700002 7.8579996,10.2339996 7.938,10.314 C8.0180004,10.3940004 8.08199976,10.4899994 8.13,10.602 C8.17800024,10.7140006 8.202,10.8319994 8.202,10.956 C8.202,11.0840006 8.17800024,11.2029994 8.13,11.313 C8.08199976,11.4230006 8.0180004,11.5179996 7.938,11.598 C7.8579996,11.6780004 7.76200056,11.7409998 7.65,11.787 C7.53799944,11.8330002 7.42000062,11.856 7.296,11.856 C7.16799936,11.856 7.04800056,11.8330002 6.936,11.787 C6.82399944,11.7409998 6.72700041,11.6780004 6.645,11.598 C6.56299959,11.5179996 6.49900023,11.4230006 6.453,11.313 C6.40699977,11.2029994 6.384,11.0840006 6.384,10.956 Z" id="8:5" fill="#FFFFFF"></path>
        </g>
    </g>
</svg>