<?xml version="1.0" encoding="utf-8"?>
<!-- Generator: Adobe Illustrator 16.0.0, SVG Export Plug-In . SVG Version: 6.00 Build 0)  -->
<!DOCTYPE svg PUBLIC "-//W3C//DTD SVG 1.1//EN" "http://www.w3.org/Graphics/SVG/1.1/DTD/svg11.dtd">
<svg version="1.1" id="Capa_1" xmlns="http://www.w3.org/2000/svg" xmlns:xlink="http://www.w3.org/1999/xlink" x="0px" y="0px"
	 width="180.767px" height="181.767px" viewBox="0 256.767 180.767 181.767" enable-background="new 0 256.767 180.767 181.767"
	 xml:space="preserve">
<g>
	<path fill="#315375" d="M164.117,306.038c-7.77-13.311-18.309-23.85-31.62-31.619c-13.313-7.769-27.847-11.652-43.611-11.652
		c-15.763,0-30.301,3.884-43.612,11.652c-13.312,7.768-23.851,18.307-31.62,31.619C5.883,319.351,2,333.889,2,349.65
		c0,15.763,3.885,30.298,11.652,43.611c7.77,13.311,18.308,23.85,31.62,31.62c13.313,7.769,27.849,11.652,43.612,11.652
		c15.762,0,30.301-3.884,43.613-11.652c13.311-7.768,23.849-18.31,31.618-31.62c7.768-13.312,11.651-27.85,11.651-43.611
		C175.767,333.887,171.884,319.349,164.117,306.038z M139.568,356.891c0,1.961-0.717,3.659-2.151,5.091
		c-1.432,1.432-3.129,2.15-5.091,2.15H45.442c-1.96,0-3.657-0.719-5.09-2.15c-1.433-1.431-2.149-3.13-2.149-5.091v-14.481
		c0-1.961,0.717-3.658,2.149-5.091c1.433-1.434,3.129-2.15,5.09-2.15h86.885c1.961,0,3.658,0.717,5.091,2.15
		c1.434,1.433,2.151,3.13,2.151,5.091V356.891z"/>
</g>
</svg>
