<?xml version="1.0" encoding="utf-8"?>
<!-- Generator: Adobe Illustrator 16.0.0, SVG Export Plug-In . SVG Version: 6.00 Build 0)  -->
<!DOCTYPE svg PUBLIC "-//W3C//DTD SVG 1.1//EN" "http://www.w3.org/Graphics/SVG/1.1/DTD/svg11.dtd">
<svg version="1.1" id="Capa_1" xmlns="http://www.w3.org/2000/svg" xmlns:xlink="http://www.w3.org/1999/xlink" x="0px" y="0px"
	 width="180.333px" height="180px" viewBox="-3.566 261.767 180.333 180" enable-background="new -3.566 261.767 180.333 180"
	 xml:space="preserve">
<g>
	<path fill="#315375" d="M162.116,308.039c-7.77-13.311-18.309-23.85-31.619-31.619c-13.314-7.769-27.847-11.652-43.611-11.652
		c-15.763,0-30.301,3.884-43.612,11.652c-13.312,7.768-23.851,18.307-31.62,31.619C3.883,321.352,0,335.889,0,351.651
		c0,15.762,3.885,30.297,11.652,43.611c7.769,13.311,18.308,23.849,31.62,31.619c13.313,7.769,27.849,11.652,43.612,11.652
		s30.301-3.884,43.613-11.652c13.311-7.767,23.849-18.309,31.618-31.619c7.768-13.312,11.651-27.85,11.651-43.611
		C173.766,335.888,169.882,321.35,162.116,308.039z M137.567,358.892c0,1.96-0.717,3.659-2.151,5.09
		c-1.434,1.433-3.13,2.15-5.091,2.15h-28.961v28.96c0,1.96-0.718,3.658-2.151,5.093c-1.431,1.432-3.129,2.148-5.09,2.148h-14.48
		c-1.961,0-3.658-0.717-5.091-2.148c-1.433-1.435-2.15-3.132-2.15-5.093v-28.96H43.441c-1.96,0-3.657-0.718-5.09-2.15
		c-1.433-1.43-2.149-3.13-2.149-5.09v-14.482c0-1.96,0.717-3.657,2.149-5.09c1.433-1.434,3.129-2.15,5.09-2.15h28.962v-28.961
		c0-1.961,0.717-3.657,2.15-5.091c1.433-1.433,3.129-2.149,5.09-2.149h14.481c1.961,0,3.659,0.717,5.091,2.149
		c1.432,1.434,2.15,3.13,2.15,5.091v28.961h28.959c1.961,0,3.659,0.717,5.091,2.15c1.434,1.433,2.151,3.129,2.151,5.09V358.892z"/>
</g>
</svg>
