<?xml version="1.0" encoding="UTF-8"?>
<svg width="25px" height="25px" viewBox="0 0 25 25" version="1.1" xmlns="http://www.w3.org/2000/svg" xmlns:xlink="http://www.w3.org/1999/xlink">
    <!-- Generator: Sketch 48.2 (47327) - http://www.bohemiancoding.com/sketch -->
    <title>search-whie</title>
    <desc>Created with Sketch.</desc>
    <defs></defs>
    <g id="exportable-assets" stroke="none" stroke-width="1" fill="none" fill-rule="evenodd" transform="translate(-181.000000, -892.000000)">
        <g id="search-whie" transform="translate(181.000000, 892.000000)" fill="#FFFFFF">
            <g id="Page-1">
                <path d="M9.55829293,19.1176471 C4.28621574,19.1176471 0,14.8316692 0,9.55882353 C0,4.29022242 4.28621574,0 9.55829293,0 C14.8314313,0 19.1176471,4.28703897 19.1176471,9.55882353 C19.1176471,14.8316692 14.8271865,19.1176471 9.55829293,19.1176471 Z M9.55829293,2.38758359 C5.60423503,2.38758359 2.38771612,5.60498511 2.38771612,9.55882353 C2.38771612,13.5137231 5.60423503,16.7300635 9.55829293,16.7300635 C13.513412,16.7300635 16.7299309,13.5137231 16.7299309,9.55882353 C16.7299309,5.60498511 13.5091672,2.38758359 9.55829293,2.38758359 Z" id="Fill-1"></path>
                <path d="M23.7146641,25 C23.3843287,25 23.0585655,24.8753649 22.8048131,24.6249512 L15.0847964,16.9021475 C14.5795777,16.4024636 14.5795777,15.584903 15.0847964,15.0840756 C15.5888721,14.5798179 16.4015656,14.5798179 16.9022123,15.0840756 L24.6210859,22.8068793 C25.1263047,23.3077066 25.1263047,24.1252673 24.6210859,24.6249512 C24.3719057,24.8753649 24.0415703,25 23.7146641,25 Z" id="Fill-2"></path>
            </g>
        </g>
    </g>
</svg>