<?xml version="1.0" encoding="UTF-8"?>
<svg width="23px" height="19px" viewBox="0 0 23 19" version="1.1" xmlns="http://www.w3.org/2000/svg" xmlns:xlink="http://www.w3.org/1999/xlink">
    <!-- Generator: Sketch 48.2 (47327) - http://www.bohemiancoding.com/sketch -->
    <title>Twitter_Logo_Blue@2x</title>
    <desc>Created with Sketch.</desc>
    <defs></defs>
    <g id="Page-1" stroke="none" stroke-width="1" fill="none" fill-rule="evenodd">
        <g id="Twitter_Logo_Blue" fill="#005CB9" fill-rule="nonzero">
            <path d="M7.23304,19 C15.91232,19 20.65952,11.6895625 20.65952,5.34998411 C20.65952,5.14234375 20.65952,4.93563869 20.64572,4.72986896 C21.5692449,4.05074546 22.366447,3.20986608 23,2.2466024 C22.1387687,2.63457354 21.2251629,2.88900489 20.28968,3.0014032 C21.2747645,2.40184824 22.0120336,1.45885224 22.36428,0.347908948 C21.4379849,0.906719044 20.4245944,1.30054053 19.36784,1.51237858 C17.9051162,-0.0688736457 15.5808618,-0.455890687 13.6983853,0.568344384 C11.8159089,1.59257946 10.843373,3.77334436 11.32612,5.88779137 C7.53194408,5.69441415 3.99691772,3.87248566 1.6008,0.87542772 C0.348332936,3.06747841 0.988068853,5.87175955 3.06176,7.27954303 C2.31080191,7.25691542 1.57621702,7.05096388 0.92,6.67906953 C0.92,6.69871119 0.92,6.71928816 0.92,6.73986513 C0.920614682,9.02352848 2.50401137,10.990446 4.7058,11.4426389 C4.01108003,11.6352581 3.28217414,11.6634151 2.57508,11.5249468 C3.19327209,13.4792194 4.9648486,14.8179957 6.98372,14.8565458 C5.31275624,16.1916471 3.24857475,16.9164203 1.12332,16.9142432 C0.747871283,16.9135104 0.37278774,16.8903996 0,16.8450297 C2.15798507,18.2529404 4.66892033,18.9997352 7.23304,18.9962587" id="Shape"></path>
        </g>
    </g>
</svg>